<svg xmlns="http://www.w3.org/2000/svg" version="1.1" xmlns:xlink="http://www.w3.org/1999/xlink" xmlns:svgjs="http://svgjs.com/svgjs" width="1000" height="1000"><g transform="matrix(20,0,0,20,0,2.96875)"><svg xmlns="http://www.w3.org/2000/svg" version="1.1" xmlns:xlink="http://www.w3.org/1999/xlink" xmlns:svgjs="http://svgjs.com/svgjs" width="50" height="50"><svg width="50" height="50" version="1.1" viewBox="0 0 160 160" xmlns="http://www.w3.org/2000/svg">
 <g transform="translate(0 -137)" style="stroke-linecap:round;fill:none">
  <path style="stroke:#596b78" d="m38 251s16 21 42 21c26 0 42-10.5 42-33v-78" stroke-width="30"></path>
  <path style="stroke:#1095c1" d="m101 249a41 40 0 0 1-49-12 41 40 0 0 1-0-50 41 40 0 0 1 49-12" stroke-width="22"></path>
  <path style="fill:#596b78" d="m95 192a21 22 0 0 1 8 30 21 22 0 0 1-29 8 21 22 0 0 1-8-30 21 22 0 0 1 29-8" stroke-width="0"></path>
  <path style="stroke:#edf0f3" d="m95 192a21 22 0 0 1 8 30 21 22 0 0 1-29 8 21 22 0 0 1-8-30 21 22 0 0 1 29-8" stroke-width="20"></path>
  <path style="stroke:#edf0f3" d="m107 185v50" stroke-width="20"></path>
 </g>
</svg></svg></g></svg>